<?xml version="1.0" encoding="UTF-8"?>
<svg xmlns="http://www.w3.org/2000/svg" xmlns:xlink="http://www.w3.org/1999/xlink" width="64pt" height="64pt" viewBox="0 0 64 64" version="1.1">
<g id="surface20971217">
<path style=" stroke:none;fill-rule:nonzero;fill:rgb(100%,100%,100%);fill-opacity:1;" d="M 12.554688 12.554688 C 1.816406 23.292969 1.816406 40.707031 12.554688 51.445312 C 23.292969 62.183594 40.707031 62.183594 51.445312 51.445312 C 62.183594 40.707031 62.183594 23.292969 51.445312 12.554688 C 40.707031 1.816406 23.292969 1.816406 12.554688 12.554688 Z M 12.554688 12.554688 "/>
<path style=" stroke:none;fill-rule:nonzero;fill:rgb(29.803923%,60.000002%,41.960785%);fill-opacity:1;" d="M 19.625 19.625 C 12.789062 26.460938 12.792969 37.539062 19.625 44.375 C 26.460938 51.207031 37.539062 51.207031 44.375 44.375 C 51.207031 37.539062 51.207031 26.460938 44.375 19.625 C 37.539062 12.792969 26.460938 12.792969 19.625 19.625 Z M 19.625 19.625 "/>
<path style=" stroke:none;fill-rule:nonzero;fill:rgb(71.372551%,98.039216%,81.568629%);fill-opacity:1;" d="M 32 61 C 24.550781 61 17.148438 58.148438 11.5 52.5 C 0.199219 41.199219 0.199219 22.800781 11.5 11.5 C 22.800781 0.199219 41.199219 0.199219 52.5 11.5 C 63.800781 22.800781 63.800781 41.199219 52.5 52.5 C 46.851562 58.148438 39.449219 61 32 61 Z M 32 6 C 25.351562 6 18.699219 8.550781 13.601562 13.601562 C 3.5 23.75 3.5 40.25 13.601562 50.398438 C 23.75 60.550781 40.25 60.550781 50.351562 50.398438 C 60.5 40.25 60.5 23.75 50.351562 13.648438 C 45.300781 8.550781 38.648438 6 32 6 Z M 32 6 "/>
<path style=" stroke:none;fill-rule:nonzero;fill:rgb(100%,100%,100%);fill-opacity:1;" d="M 41.5 30.5 L 33.5 30.5 L 33.5 22.5 C 33.5 21.648438 32.851562 21 32 21 C 31.148438 21 30.5 21.648438 30.5 22.5 L 30.5 30.5 L 22.5 30.5 C 21.648438 30.5 21 31.148438 21 32 C 21 32.851562 21.648438 33.5 22.5 33.5 L 30.5 33.5 L 30.5 41.5 C 30.5 42.351562 31.148438 43 32 43 C 32.851562 43 33.5 42.351562 33.5 41.5 L 33.5 33.5 L 41.5 33.5 C 42.351562 33.5 43 32.851562 43 32 C 43 31.148438 42.351562 30.5 41.5 30.5 Z M 41.5 30.5 "/>
</g>
</svg>
